<?xml version="1.0" encoding="UTF-8"?>
<svg version="1.1" xmlns="http://www.w3.org/2000/svg" width="256" height="197">
<path d="M0 0 C84.48 0 168.96 0 256 0 C256 65.01 256 130.02 256 197 C171.52 197 87.04 197 0 197 C0 131.99 0 66.98 0 0 Z " fill="#FAFBFB" transform="translate(0,0)"/>
<path d="M0 0 C7.55507097 0.35126604 14.20264744 2.99676589 21.24609375 5.59375 C22.54213454 6.06474814 23.83845128 6.53498758 25.13502502 7.0045166 C28.54919852 8.24312078 31.95966106 9.49163854 35.36938477 10.74243164 C38.74743178 11.97983925 42.12867361 13.20844239 45.50976562 14.4375 C50.17168082 16.13297265 54.83257041 17.83120861 59.49213886 19.53312016 C66.87830596 22.23065862 74.27178496 24.90728568 81.671875 27.56640625 C94.17734282 32.06073436 106.6738586 36.57945342 119.16479492 41.11401367 C121.63384062 42.00985041 124.1032526 42.90467819 126.57299805 43.79858398 C130.20184715 45.1121228 133.8295589 46.42875843 137.45703125 47.74609375 C138.56101761 48.14501328 139.66500397 48.5439328 140.80244446 48.9549408 C141.8225914 49.32615555 142.84273834 49.6973703 143.89379883 50.07983398 C144.78658035 50.40354477 145.67936188 50.72725555 146.59919739 51.06077576 C148.81086327 51.92600733 150.89733777 52.89918359 153 54 C149.56843198 58.04749048 146.07893139 62.01944821 142.5 65.9375 C136.48068493 72.63576138 131.778011 78.35729911 129 87 C130.32 88.32 131.64 89.64 133 91 C141.68728873 88.0137445 147.3090245 83.0308089 153 76 C154.14224858 74.66359438 155.28784811 73.33004223 156.4375 72 C157.283125 71.01 158.12875 70.02 159 69 C159.33 69.66 159.66 70.32 160 71 C159.10633888 73.60580662 158.14138555 76.11611519 157.09375 78.66015625 C156.43508929 80.30518916 155.77896028 81.95123738 155.125 83.59814453 C154.77630859 84.47625793 154.42761719 85.35437134 154.06835938 86.25909424 C152.24623308 90.93381004 150.54436398 95.65108164 148.84375 100.37109375 C148.48917725 101.35365143 148.13460449 102.33620911 147.76928711 103.34854126 C146.67774545 106.37755709 145.58870306 109.40746288 144.5 112.4375 C142.01142201 119.35138986 139.5189717 126.26386396 137.02001953 133.17401123 C136.33792707 135.06376489 135.65792587 136.95427465 134.97998047 138.84552002 C134.02297029 141.51475794 133.0591174 144.1814316 132.09375 146.84765625 C131.80939087 147.64634628 131.52503174 148.44503632 131.23205566 149.26792908 C129.2277666 154.7722334 129.2277666 154.7722334 127 157 C121.21613255 156.66906953 116.13925647 154.80011332 110.74609375 152.7890625 C109.86167099 152.46550781 108.97724823 152.14195312 108.06602478 151.80859375 C105.18745396 150.75379462 102.31252511 149.6894211 99.4375 148.625 C97.42357912 147.88525321 95.40941668 147.14616373 93.39501953 146.40771484 C88.45922329 144.59675963 83.52610072 142.77866154 78.59405518 140.95751953 C72.85689418 138.8398145 67.11584972 136.73268092 61.375 134.625 C60.25158203 134.21161377 59.12816406 133.79822754 57.97070312 133.37231445 C49.92067758 130.41688931 41.85573495 127.50429502 33.78515625 124.60546875 C32.69259521 124.21290894 31.60003418 123.82034912 30.47436523 123.41589355 C25.01639199 121.45534941 19.55749972 119.49742271 14.09716797 117.54345703 C1.75205665 113.11824532 -10.54162475 108.57977495 -22.77267456 103.8477478 C-24.27448183 103.27614125 -25.78217808 102.71980299 -27.29495239 102.17788696 C-32.79913259 100.20086741 -32.79913259 100.20086741 -35 98 C-34.81190406 90.66425819 -32.05629352 84.37493472 -29.375 77.625 C-28.37038692 75.05094681 -27.37533005 72.47326997 -26.3828125 69.89453125 C-26.11641968 69.2033873 -25.85002686 68.51224335 -25.57556152 67.80015564 C-21.62574178 57.4903818 -17.98578321 47.06545857 -14.31219482 36.65484619 C-11.01984336 27.32466066 -7.67991996 18.02095912 -4.109375 8.79296875 C-3.8118634 8.02108719 -3.51435181 7.24920563 -3.20782471 6.45393372 C-1.12435476 1.12435476 -1.12435476 1.12435476 0 0 Z " fill="#269DF6" transform="translate(55,22)"/>
<path d="M0 0 C3.36186367 0.86201633 5.05162008 2.10657119 7.4375 4.625 C8.4140625 7.3828125 8.4140625 7.3828125 8.4375 10.625 C6.70946352 13.03081757 5.15499364 14.83932732 3.0625 16.875 C1.93950089 18.0254531 0.81710958 19.17649979 -0.3046875 20.328125 C-0.8625293 20.88951172 -1.42037109 21.45089844 -1.99511719 22.02929688 C-4.09165696 24.16371805 -6.07915 26.38549778 -8.0625 28.625 C-11.52739927 32.49162672 -15.03558937 36.31509639 -18.5625 40.125 C-22.87788202 44.78794779 -27.15921034 49.47841846 -31.3984375 54.2109375 C-32.91970036 55.90794192 -34.44622176 57.60023987 -35.9765625 59.2890625 C-37.16378906 60.60003906 -37.16378906 60.60003906 -38.375 61.9375 C-39.43654297 63.10732422 -39.43654297 63.10732422 -40.51953125 64.30078125 C-42.60709443 66.61819809 -42.60709443 66.61819809 -44.51171875 69.203125 C-46.67899321 71.76257294 -48.70912687 73.31828868 -51.5625 75.0625 C-52.408125 75.59746094 -53.25375 76.13242188 -54.125 76.68359375 C-56.5625 77.625 -56.5625 77.625 -58.6875 77.03515625 C-60.7843868 75.45812263 -62.1120048 73.8007428 -63.5625 71.625 C-60.15702505 63.58191847 -55.56793847 57.89073611 -49.5625 51.625 C-47.71934166 49.63395878 -45.89169755 47.62886217 -44.0625 45.625 C-43.12382731 44.60274575 -42.18502646 43.58060917 -41.24609375 42.55859375 C-38.85764165 39.94763665 -36.48675383 37.3225852 -34.125 34.6875 C-30.1318423 30.23716504 -26.08058263 25.84320833 -22.01733398 21.45703125 C-18.87570131 18.06143275 -15.76933106 14.63769807 -12.6875 11.1875 C-11.31279928 9.66639614 -9.93783037 8.14553458 -8.5625 6.625 C-7.99789062 5.98175781 -7.43328125 5.33851562 -6.8515625 4.67578125 C-4.68453028 2.31624617 -3.15802472 0.77024993 0 0 Z " fill="#FD838A" transform="translate(246.5625,36.375)"/>
<path d="M0 0 C7.27465612 2.06257663 14.31701368 4.5446311 21.375 7.25 C28.63841659 10.00340861 35.90784408 12.71366206 43.25 15.25 C65.1366474 22.82944901 86.88153245 30.82855412 108.62432861 38.80953979 C110.32953025 39.43519998 112.03505506 40.05998007 113.74090576 40.68386841 C116.11346598 41.55207209 118.48465395 42.42391827 120.85546875 43.296875 C121.92309196 43.68657722 121.92309196 43.68657722 123.01228333 44.08415222 C127.88550429 45.88550429 127.88550429 45.88550429 129 47 C129.04063832 48.66617115 129.042721 50.33388095 129 52 C124.13400622 53.62537172 120.49914566 52.08913958 115.92578125 50.3359375 C115.1138179 50.03644196 114.30185455 49.73694641 113.46528625 49.42837524 C110.74339485 48.42177166 108.02821618 47.39813438 105.3125 46.375 C103.3831785 45.65873038 101.45331423 44.9439213 99.52294922 44.23046875 C96.40929475 43.07939327 93.29607238 41.9272453 90.18444824 40.77069092 C81.79035518 37.65169922 73.37828545 34.58379021 64.95703125 31.5390625 C64.32098528 31.30908947 63.68493931 31.07911644 63.02961922 30.84217453 C59.82331048 29.68314782 56.61673531 28.52486048 53.41000366 27.36700439 C49.71591984 26.0330834 46.02253681 24.69723069 42.3293457 23.36083984 C40.57008507 22.72424942 40.57008507 22.72424942 38.77528381 22.07479858 C36.47698284 21.24262478 34.1789121 20.40981481 31.88108826 19.57632446 C26.41104647 17.59262179 20.93788572 15.61888057 15.45605469 13.66796875 C14.43216644 13.30147217 13.4082782 12.93497559 12.35336304 12.55737305 C10.43428176 11.87066037 8.51364355 11.18827767 6.59121704 10.51098633 C5.74820038 10.20829834 4.90518372 9.90561035 4.03662109 9.59375 C3.30124115 9.33271484 2.56586121 9.07167969 1.80819702 8.80273438 C0 8 0 8 -2 6 C-1.44444444 1.44444444 -1.44444444 1.44444444 0 0 Z " fill="#ECF0F4" transform="translate(41,113)"/>
<path d="M0 0 C6.32248608 2.06289228 12.49156522 4.45105658 18.67382812 6.89550781 C24.63903855 9.23881167 30.65338297 11.39230304 36.71484375 13.47265625 C51.27121904 18.47749962 65.72620216 23.75637996 80.17578125 29.06011963 C82.09590647 29.7644541 84.01663167 30.46712867 85.9375 31.16943359 C89.32403227 32.40990305 92.70750863 33.65829513 96.08984375 34.91015625 C97.09007568 35.27616943 98.09030762 35.64218262 99.12084961 36.01928711 C100.02714111 36.35710205 100.93343262 36.69491699 101.8671875 37.04296875 C103.04462524 37.47826904 103.04462524 37.47826904 104.24584961 37.92236328 C106.15234375 38.78515625 106.15234375 38.78515625 108.15234375 40.78515625 C107.77734375 42.91015625 107.77734375 42.91015625 107.15234375 44.78515625 C103.1892373 45.86918112 100.95511941 45.68670421 97.140625 44.21484375 C96.10131836 43.82329102 95.06201172 43.43173828 93.99121094 43.02832031 C92.24565918 42.3510791 92.24565918 42.3510791 90.46484375 41.66015625 C87.79129874 40.64639372 85.11413852 39.6422802 82.4375 38.63671875 C81.67984344 38.35066772 80.92218689 38.0646167 80.14157104 37.76989746 C72.75103954 34.98758404 65.32705685 32.29973056 57.8984375 29.62109375 C57.26769632 29.39354778 56.63695515 29.16600182 55.9871006 28.93156052 C50.82146256 27.06812018 45.65524149 25.20629773 40.48843765 23.34609222 C32.74947776 20.55978969 25.01666246 17.75784994 17.29370117 14.92749023 C14.34205447 13.85414331 11.3824191 12.80660645 8.41992188 11.76367188 C6.7626569 11.16246058 5.10572727 10.56032365 3.44921875 9.95703125 C2.70738342 9.70439514 1.9655481 9.45175903 1.20123291 9.19146729 C-0.80566406 8.44433594 -0.80566406 8.44433594 -3.84765625 6.78515625 C-4.80371094 4.08691406 -4.80371094 4.08691406 -4.84765625 1.78515625 C-1.84765625 -0.21484375 -1.84765625 -0.21484375 0 0 Z " fill="#ECF0F4" transform="translate(57.84765625,103.21484375)"/>
<path d="M0 0 C2.85112128 0.15540703 3.94452155 0.94844641 6.04296875 2.8984375 C8.37336071 5.58963696 10.69555176 8.28652132 13 11 C13.86496094 11.96808594 14.72992188 12.93617187 15.62109375 13.93359375 C16.44738281 14.88363281 17.27367187 15.83367187 18.125 16.8125 C18.89070313 17.68519531 19.65640625 18.55789062 20.4453125 19.45703125 C22 22 22 22 21.8671875 24.69921875 C21 27 21 27 19 29 C16.88037109 29.59423828 16.88037109 29.59423828 14.2734375 30.0703125 C13.32339844 30.24433594 12.37335938 30.41835937 11.39453125 30.59765625 C9.89986328 30.85869141 9.89986328 30.85869141 8.375 31.125 C6.91513672 31.39763672 6.91513672 31.39763672 5.42578125 31.67578125 C-0.14121001 32.67229516 -5.346568 33.20142869 -11 33 C-12.51988184 29.09037802 -11.41449586 26.59844578 -9.98046875 22.7734375 C-9.53509766 21.5771875 -9.08972656 20.3809375 -8.63085938 19.1484375 C-8.39391357 18.52936523 -8.15696777 17.91029297 -7.9128418 17.27246094 C-7.1889754 15.37885959 -6.48291068 13.47933227 -5.77929688 11.578125 C-2.27991748 2.27991748 -2.27991748 2.27991748 0 0 Z " fill="#032495" transform="translate(117,72)"/>
<path d="M0 0 C3.65116411 0.50946476 5.16538923 1.71277197 7.6875 4.375 C8.75 7.375 8.75 7.375 8.6875 10.375 C6.75 12.75 6.75 12.75 4.6875 14.375 C-0.32168744 12.90170958 -2.83057722 10.09984762 -6.3125 6.375 C-3.61074561 0.58552632 -3.61074561 0.58552632 0 0 Z " fill="#092295" transform="translate(246.3125,36.625)"/>
<path d="M0 0 C3.23585361 1.61792681 4.83246068 2.55804109 7.25 5 C7.77078125 5.515625 8.2915625 6.03125 8.828125 6.5625 C10 8 10 8 10 10 C5.54014599 12.91605839 5.54014599 12.91605839 3 14 C-0.55169647 13.21073412 -2.03586782 10.94619827 -4 8 C-2.68 5.36 -1.36 2.72 0 0 Z " fill="#F6F8FA" transform="translate(187,100)"/>
<path d="M0 0 C1.65 1.65 3.3 3.3 5 5 C1.93882432 7.62386487 1.26826873 8 -3 8 C-1.125 2.25 -1.125 2.25 0 0 Z " fill="#072596" transform="translate(183,109)"/>
</svg>
